<svg class="img-fluid" id="outputsvg" xmlns="http://www.w3.org/2000/svg" width="1040" height="1040" viewBox="0 0 10400 10400"><g id="l3O5TzJ4oYKSTz3576L4J35" fill="rgb(250,190,2)" style="transform: none; transform-origin: 50% 50%;"><g style="transform: none;"><path id="p6NfhlVaC" d="M4703 6869 c-234 -22 -488 -94 -701 -197 -110 -53 -313 -186 -421 -277 -365 -303 -623 -742 -728 -1232 -26 -123 -27 -140 -28 -433 0 -250 3 -324 18 -410 79 -458 276 -838 612 -1176 238 -240 484 -390 840 -512 216 -74 394 -102 665 -102 306 0 577 43 785 125 434 171 679 344 953 673 106 126 181 230 220 302 l29 55 926 3 c737 2 927 5 927 15 0 10 113 12 550 9 520 -2 551 -2 558 15 4 10 7 92 7 183 -1 141 -4 177 -23 245 -83 291 -342 533 -650 606 -33 8 -346 12 -1055 14 -855 2 -1010 4 -1018 16 -5 8 -9 38 -9 67 -1 310 -129 715 -324 1020 -131 206 -338 430 -531 575 -299 224 -708 381 -1083 417 -122 11 -397 11 -519 -1z m392 -1884 c244 -51 435 -264 469 -525 4 -25 0 -82 -8 -128 -36 -207 -184 -382 -392 -462 -46 -18 -80 -23 -159 -24 -117 -1 -170 12 -277 66 -142 73 -256 220 -298 384 -35 135 -25 219 40 359 41 89 99 158 195 235 73 58 114 77 205 95 87 18 141 18 225 0z"></path></g></g><g id="l39YIaB1YpYnOCwQX47EIPC" fill="rgb(0,0,0)" style="transform: none; transform-origin: 50% 50%;"><g style="transform: none;"><path id="pIs1S041b" d="M4430 9924 c-686 -33 -1438 -250 -2057 -594 -205 -114 -476 -299 -658 -449 -234 -192 -602 -590 -801 -866 -366 -505 -668 -1192 -768 -1745 -77 -426 -102 -837 -71 -1195 53 -624 183 -1089 452 -1629 220 -440 498 -823 853 -1176 364 -361 691 -595 1175 -838 500 -251 1066 -415 1652 -479 200 -22 731 -25 903 -5 389 45 627 95 945 199 553 180 1011 434 1485 822 275 225 598 580 813 891 180 263 415 701 442 828 l7 32 -943 -2 -942 -3 -29 -55 c-57 -106 -236 -334 -365 -466 -93 -95 -259 -230 -358 -292 -107 -66 -284 -151 -450 -217 -199 -79 -480 -125 -755 -125 -240 0 -427 30 -635 102 -356 122 -602 272 -840 512 -336 338 -533 718 -612 1176 -14 84 -18 159 -18 380 1 260 2 282 28 403 88 413 278 779 557 1071 119 124 216 205 373 310 318 212 662 319 1072 333 351 12 644 -44 979 -186 364 -154 716 -458 942 -813 195 -305 323 -710 324 -1020 0 -29 4 -59 9 -67 8 -12 169 -14 1017 -16 685 -2 1024 -7 1056 -14 302 -70 567 -316 648 -601 36 -129 39 -320 5 -404 -8 -17 -1 -18 146 -14 133 3 160 7 194 25 50 26 86 65 116 123 44 86 26 284 -42 466 -50 132 -176 329 -290 451 -158 171 -334 290 -530 358 -101 35 -263 75 -304 75 -19 0 -20 4 -17 162 10 430 -56 917 -179 1343 -24 82 -135 389 -177 491 -41 98 -157 332 -214 432 -27 46 -48 85 -48 87 0 5 -110 178 -124 195 -7 8 -33 49 -59 91 -26 42 -54 82 -63 90 -9 7 -34 40 -57 74 -22 33 -62 85 -88 115 -199 232 -272 311 -392 424 -707 666 -1640 1092 -2611 1191 -140 15 -553 26 -696 19z"></path><path id="p11hX7mIAD" d="M4840 5015 c-91 -18 -132 -37 -205 -95 -96 -77 -154 -146 -195 -235 -48 -103 -60 -155 -60 -258 0 -102 27 -215 72 -300 50 -95 154 -197 246 -245 113 -57 158 -67 307 -66 111 0 139 4 189 23 208 82 355 255 393 463 37 207 -24 404 -172 553 -146 147 -353 204 -575 160z"></path><path id="p1D2GZBdw4" d="M8322 1994 c-29 -14 -65 -42 -82 -62 -53 -65 -60 -103 -60 -337 0 -116 -3 -215 -6 -218 -4 -4 -42 26 -85 67 -90 85 -133 108 -209 114 -148 11 -282 -153 -251 -306 6 -30 23 -71 38 -91 15 -20 160 -169 323 -332 261 -263 301 -298 344 -313 98 -32 208 -16 285 41 76 57 578 578 609 633 56 98 33 215 -58 292 -61 53 -104 70 -174 71 -82 1 -132 -25 -223 -121 l-73 -75 0 224 c0 123 -4 239 -10 257 -5 19 -26 55 -46 82 -73 96 -213 128 -322 74z"></path></g></g></svg>
